# Blender v2.79 (sub 0) OBJ File: 'Pistol.blend'
# www.blender.org
o Cube
v 0.774972 0.009964 -0.778130
v 0.774305 0.009964 0.597836
v -0.748698 0.009964 0.558448
v -0.745696 0.009964 -0.767410
v 0.845110 4.433041 -0.896548
v 0.774305 4.433041 0.597837
v -0.748698 4.433041 0.558448
v -0.813243 4.433041 -0.896548
v 0.015933 0.009964 -0.896548
v 0.774972 2.801292 -0.778130
v -0.745696 2.801292 -0.767410
v 0.309999 2.801292 -4.192747
v 0.015933 2.801292 -0.896548
v 0.739317 4.433041 -4.555225
v -0.286741 2.801292 -4.192747
v -0.696373 4.433041 -4.555225
v 0.015934 2.801292 -4.192747
v 0.845110 3.617167 -0.896548
v 0.845111 3.617167 -4.555225
v 0.309998 2.801292 -2.725887
v 0.739316 4.433041 -2.725886
v 0.845110 3.617167 -2.725887
v 0.845110 4.025104 -0.896548
v 0.845111 4.025104 -4.555225
v 0.309998 2.801292 -1.811217
v 0.739317 4.433041 -3.640556
v 0.845110 3.209229 -0.896548
v 0.309999 3.209229 -4.192747
v 0.309998 2.801292 -3.640556
v 0.739316 4.433041 -1.811217
v 0.845111 3.617167 -3.640556
v 0.845110 3.617167 -1.811217
v 0.845110 4.025104 -2.725887
v 0.309998 3.209229 -2.725887
v 0.309998 3.209229 -1.811217
v 0.845110 4.025104 -1.811217
v 0.845111 4.025104 -3.640556
v 0.309998 3.209229 -3.640556
v -0.813243 3.617167 -0.896548
v -0.813242 3.617167 -4.555225
v -0.696373 4.433041 -2.725887
v -0.286741 2.801292 -2.725887
v -0.813243 3.617167 -2.725887
v -0.813243 4.025104 -0.896548
v -0.813242 4.025104 -4.555225
v -0.696373 4.433041 -1.811218
v -0.286741 2.801292 -1.811218
v -0.813243 3.209229 -0.896548
v -0.286741 3.209229 -4.192747
v -0.696373 4.433041 -3.640556
v -0.286741 2.801292 -3.640556
v -0.813242 3.617167 -3.640556
v -0.813243 3.617167 -1.811218
v -0.286741 3.209229 -2.725887
v -0.813243 4.025104 -2.725887
v -0.813243 4.025104 -1.811218
v -0.286741 3.209229 -1.811218
v -0.286741 3.209229 -3.640556
v -0.813243 4.025104 -3.640556
v 0.845111 4.229072 -4.555225
v -0.813242 4.229072 -4.555225
v 0.314472 4.433041 -4.555225
v -0.135403 2.801292 -4.192747
v 0.162966 2.801292 -4.192747
v 0.320808 4.233675 -4.555225
v 0.845111 3.821135 -4.555225
v 0.309999 3.005261 -4.192747
v 0.327144 3.617167 -4.555225
v -0.813242 3.821135 -4.555225
v -0.286741 3.005261 -4.192747
v -0.333216 3.617167 -4.555225
v -0.333798 4.233675 -4.555225
v -0.334380 4.433041 -4.555225
v 0.324191 3.904513 -4.555225
v -0.333486 3.903215 -4.555225
v 0.320808 4.233675 -4.683384
v -0.333798 4.233675 -4.683384
v 0.324191 3.904513 -4.683384
v -0.333486 3.903215 -4.683384
v -0.006495 4.233675 -4.683384
v 0.322499 4.069094 -4.683384
v -0.333642 4.068445 -4.683384
v -0.004648 3.903864 -4.683384
v -0.292637 4.233675 -4.683384
v 0.323345 3.948264 -4.683384
v -0.333564 3.947291 -4.683384
v -0.291558 3.903540 -4.683384
v 0.245311 4.233675 -4.683384
v 0.321654 4.188036 -4.683384
v -0.333720 4.187711 -4.683384
v 0.247926 3.904188 -4.683384
v -0.006033 4.187873 -4.683384
v -0.005109 3.947777 -4.683384
v 0.246619 4.068932 -4.683384
v -0.292098 4.068607 -4.683384
v -0.291828 3.947534 -4.683384
v 0.247273 3.948020 -4.683384
v 0.245965 4.187954 -4.683384
v -0.292368 4.187792 -4.683384
v -0.005109 3.947777 -4.528977
v -0.005571 4.068769 -4.528977
v -0.292098 4.068607 -4.528977
v -0.006033 4.187873 -4.528977
v 0.246619 4.068932 -4.528977
v -0.291828 3.947534 -4.528977
v 0.247273 3.948020 -4.528977
v 0.245965 4.187954 -4.528977
v -0.292368 4.187792 -4.528977
v -0.398655 4.433041 -0.896548
v 0.430522 4.433041 -0.896548
v 0.328072 4.433041 -4.126450
v -0.341928 4.433041 -4.125575
v -0.008441 4.433041 -4.340619
v 0.160572 4.433041 -4.126231
v 0.152259 4.433041 -4.555225
v 0.156416 4.433041 -4.340728
v -0.173297 4.433041 -4.340509
v -0.007684 4.433041 -4.233315
v -0.173862 4.433041 -4.233151
v 0.158494 4.433041 -4.233479
v -0.060691 4.553099 -4.340509
v -0.008441 4.553099 -4.340619
v 0.036185 4.553099 -4.340728
v -0.061256 4.553099 -4.233151
v -0.007684 4.553099 -4.233315
v 0.038263 4.553099 -4.233479
v 0.015933 0.009964 0.761805
v 0.774305 2.221502 0.597836
v -0.748698 2.221502 0.558448
v 0.015933 4.433041 0.761805
v 0.015933 2.221502 0.761805
v -0.398655 0.009964 0.761805
v 0.774305 3.221617 0.597836
v -0.748698 3.221617 0.558448
v -0.398655 4.433041 0.761805
v 0.430521 0.009964 0.761805
v 0.774305 1.115733 0.597836
v -0.748698 1.115733 0.558448
v 0.430521 4.433041 0.761805
v -0.398655 2.221502 0.761805
v 0.430521 2.221502 0.761805
v 0.015933 1.115733 0.761805
v 0.015933 3.221616 0.761805
v 0.430521 3.221617 0.761805
v 0.430521 1.115733 0.761805
v -0.398655 1.115733 0.761805
v -0.398655 3.221617 0.761805
v -0.398655 4.433041 -0.481960
v 0.430522 4.433041 -0.481960
v 0.223228 4.433041 -0.896548
v -0.191361 4.433041 -0.896548
v 0.223227 4.433041 -0.481960
v -0.191361 4.433041 -0.481960
v -0.191361 4.642004 -0.896548
v 0.223227 4.642004 -0.481960
v 0.223228 4.642004 -0.896548
v -0.191361 4.642004 -0.481960
v 0.326875 4.642004 -0.481960
v 0.326875 4.642004 -0.896548
v -0.295008 4.642004 -0.896548
v -0.295008 4.642004 -0.481960
v 0.015934 2.801292 -1.811218
v 0.430522 0.009964 -0.896548
v -0.398655 0.009964 -0.896549
v 0.577554 2.801292 -1.353883
v -0.549992 2.801292 -1.353883
v 0.015934 2.801292 -1.353883
v -0.135404 2.801292 -1.811218
v 0.162966 2.801292 -1.811218
v -0.267029 2.801292 -1.353883
v 0.296744 2.801292 -1.353883
v 0.015934 2.378044 -1.417046
v 0.015934 2.317195 -1.811218
v -0.135404 2.317195 -1.811218
v 0.162966 2.317195 -1.811218
v -0.053793 2.378044 -1.417047
v 0.100547 2.378044 -1.417046
v 0.170945 2.559244 -1.353883
v -0.059735 2.801292 -1.811218
v 0.089450 2.801292 -1.811218
v -0.201216 2.801292 -1.582550
v -0.125548 2.801292 -1.353883
v 0.229855 2.801292 -1.582550
v 0.156339 2.801292 -1.353883
v 0.015934 2.317195 -1.582550
v -0.059735 2.317195 -1.811218
v 0.089450 2.317195 -1.811218
v -0.086799 2.317195 -1.582550
v -0.010610 2.378044 -1.417047
v 0.108383 2.317195 -1.582550
v 0.040226 2.378044 -1.417046
v 0.146177 2.559244 -1.651152
v 0.015934 2.559244 -1.651152
v -0.117908 2.559244 -1.651152
v -0.142405 2.559244 -1.353883
v 0.015934 2.559244 -1.353883
v 0.089450 2.559244 -1.651152
v 0.107892 2.559244 -1.353883
v -0.105375 2.559244 -1.464728
v -0.059892 2.559244 -1.353883
v -0.044565 2.317195 -1.582550
v 0.050337 2.317195 -1.582550
v 0.131806 2.559244 -1.455224
v -0.059735 2.559244 -1.651152
v 0.774972 1.405628 -0.778130
v -0.745696 1.405628 -0.767410
v 0.015933 1.405628 -0.896548
v -0.398655 2.801292 -0.896548
v 0.430522 2.801292 -0.896548
v 0.430522 1.405628 -0.896548
v -0.398655 1.405628 -0.896548
v -0.605949 0.009964 -0.896549
v 0.223227 0.009964 -0.896548
v 0.774972 2.103460 -0.778130
v -0.745696 2.103460 -0.767410
v 0.637816 0.009964 -0.896548
v -0.191361 0.009964 -0.896549
v 0.015933 2.103460 -0.896548
v -0.605949 2.801292 -0.896548
v 0.223228 2.801292 -0.896548
v -0.745696 0.707796 -0.767410
v 0.774972 0.707796 -0.778130
v 0.015933 0.707796 -0.896548
v -0.191361 2.801292 -0.896548
v 0.637816 2.801292 -0.896548
v 0.223228 1.405628 -0.896548
v 0.637816 1.405628 -0.896548
v 0.430522 2.103460 -0.896548
v 0.430522 0.707796 -0.896548
v -0.605949 1.405628 -0.896549
v -0.191361 1.405628 -0.896548
v -0.398655 2.103460 -0.896548
v -0.398655 0.707796 -0.896549
v -0.191361 0.707796 -0.896548
v -0.191361 2.103460 -0.896548
v -0.605949 2.103460 -0.896548
v 0.637816 2.103460 -0.896548
v 0.223228 2.103460 -0.896548
v 0.637816 0.707796 -0.896548
v 0.223228 0.707796 -0.896548
v -0.605949 0.707796 -0.896549
v -0.573676 0.009964 0.660126
v 0.774305 3.827328 0.597836
v -0.748698 3.827328 0.558448
v 0.774305 1.668618 0.597836
v -0.748698 1.668618 0.558448
v -0.573676 2.221502 0.660126
v 0.774305 2.721560 0.597836
v -0.748698 2.721560 0.558448
v 0.602413 0.009964 0.679820
v 0.774305 0.562849 0.597836
v -0.748698 0.562849 0.558448
v 0.602413 2.221502 0.679821
v 0.602413 3.221617 0.679821
v 0.430521 2.721559 0.761805
v 0.430521 3.827328 0.761805
v 0.602413 1.115733 0.679820
v 0.430521 0.562849 0.761805
v 0.430521 1.668618 0.761805
v -0.573676 1.115733 0.660126
v -0.398655 0.562849 0.761805
v -0.398655 1.668618 0.761805
v -0.573677 3.221617 0.660126
v -0.398655 2.721559 0.761805
v -0.398655 3.827328 0.761805
v -0.573677 4.433041 0.660126
v 0.602413 4.433041 0.679821
v -0.573676 2.721559 0.660126
v -0.573676 0.562849 0.660126
v 0.602413 1.668618 0.679821
v 0.602413 0.562849 0.679820
v 0.602413 3.827328 0.679821
v 0.602413 2.721559 0.679821
v -0.573676 1.668618 0.660126
v -0.573677 3.827328 0.660126
v 0.809707 3.215423 -0.149356
v 0.827409 3.212326 -0.522952
v 0.792006 3.218520 0.224240
v 0.809707 0.009964 -0.149356
v 0.792006 0.009964 0.224240
v 0.827409 0.009964 -0.522952
v 0.809707 2.761426 -0.149356
v 0.827409 2.781359 -0.522952
v 0.792006 2.741493 0.224240
v -0.780970 3.215423 -0.169050
v -0.764834 3.218520 0.194699
v -0.797107 3.212326 -0.532799
v -0.780970 0.009964 -0.169050
v -0.797107 0.009964 -0.532799
v -0.764834 0.009964 0.194699
v -0.797107 2.781359 -0.532799
v -0.764834 2.741493 0.194699
v -0.780970 2.761426 -0.169050
vn 0.0000 -1.0000 0.0000
vn -0.9990 -0.0000 0.0443
vn -0.5023 0.0000 0.8647
vn -0.6787 0.0000 -0.7344
vn 0.0000 1.0000 -0.0000
vn 0.0000 0.0000 -1.0000
vn 0.0000 0.5516 -0.8341
vn 1.0000 -0.0000 0.0000
vn -0.9609 0.2753 0.0307
vn 0.6063 -0.7953 0.0000
vn 0.8873 -0.0712 -0.4556
vn 0.9680 0.2510 0.0000
vn 0.9901 0.1284 -0.0573
vn 0.9676 0.2509 0.0280
vn -0.6125 -0.7905 0.0000
vn -0.9613 0.2754 -0.0000
vn -1.0000 0.0000 -0.0000
vn -0.9879 0.1415 -0.0631
vn -0.8909 -0.0724 -0.4483
vn -0.8667 0.0000 -0.4989
vn 0.0000 -0.6642 -0.7475
vn -1.0000 -0.0009 0.0000
vn 0.0020 -1.0000 -0.0001
vn 0.9999 0.0103 -0.0000
vn -0.0008 1.0000 0.0000
vn 1.0000 0.0023 0.0000
vn -1.0000 -0.0054 0.0000
vn 0.0003 -1.0000 0.0000
vn 1.0000 0.0022 0.0000
vn -1.0000 -0.0055 0.0000
vn -0.0010 1.0000 0.0000
vn -0.0010 0.0005 -1.0000
vn 0.0015 0.0008 1.0000
vn -0.0010 -0.0005 -1.0000
vn 0.7065 0.7075 -0.0137
vn -0.7294 0.6841 -0.0038
vn 0.0015 -0.0007 1.0000
vn -0.0000 -0.0000 1.0000
vn 0.4305 -0.0000 0.9026
vn 0.8631 -0.0000 -0.5050
vn -0.8959 0.4443 -0.0000
vn 0.8959 0.4443 0.0000
vn 0.9801 -0.1844 -0.0729
vn 0.0000 -0.3292 0.9443
vn -0.9857 -0.0855 0.1452
vn 0.0000 -0.5516 -0.8341
vn -0.9638 -0.2628 0.0438
vn -0.8538 -0.4518 -0.2586
vn -0.9486 -0.2920 -0.1218
vn -0.0000 -0.9386 0.3451
vn 0.9813 -0.1081 0.1594
vn 0.9484 -0.2946 -0.1173
vn 0.8445 -0.4618 -0.2713
vn 0.6535 0.0000 -0.7569
vn 0.9942 -0.0912 -0.0574
vn 0.9989 0.0000 0.0473
vn -0.9941 -0.0895 -0.0611
vn 0.9795 -0.0000 -0.2013
vn -0.9768 -0.0000 -0.2141
s off
f 242//1 250//1 136//1 127//1 132//1
f 134//2 244//2 7//2 8//2 44//2 39//2 48//2 287//2 285//2 286//2
f 275//3 266//3 7//3 244//3
f 247//3 268//3 249//3 129//3
f 241//4 212//4 4//4 221//4
f 8//5 109//5 112//5 73//5 16//5 50//5 41//5 46//5
f 240//6 213//6 9//6 223//6
f 204//7 193//7 173//7 186//7
f 38//8 29//8 12//8 67//8 28//8
f 59//9 50//9 16//9 61//9 45//9
f 170//1 166//1 47//1 168//1 181//1
f 37//8 31//8 19//8 66//8 24//8
f 36//8 32//8 22//8 33//8
f 35//8 25//8 20//8 34//8
f 32//10 35//10 34//10 22//10
f 18//10 35//10 32//10
f 27//11 10//11 165//11 25//11 35//11
f 30//12 36//12 33//12 21//12
f 5//13 23//13 36//13 30//13
f 23//8 18//8 32//8 36//8
f 26//14 37//14 24//14 60//14 14//14
f 21//12 33//12 37//12 26//12
f 33//8 22//8 31//8 37//8
f 31//10 38//10 28//10 19//10
f 22//10 34//10 38//10 31//10
f 34//8 20//8 29//8 38//8
f 58//15 52//15 40//15 49//15
f 57//15 53//15 43//15 54//15
f 56//16 46//16 41//16 55//16
f 53//17 56//17 55//17 43//17
f 39//17 44//17 56//17 53//17
f 44//18 8//18 46//18 56//18
f 47//17 57//17 54//17 42//17
f 11//19 48//19 57//19 47//19 166//19
f 48//20 39//20 57//20
f 51//17 58//17 49//17 70//17 15//17
f 42//17 54//17 58//17 51//17
f 54//15 43//15 52//15 58//15
f 52//17 59//17 45//17 69//17 40//17
f 43//17 55//17 59//17 52//17
f 55//16 41//16 50//16 59//16
f 40//21 71//21 68//21 19//21 28//21 49//21
f 14//6 60//6 24//6 65//6 62//6
f 49//6 28//6 67//6 12//6 64//6 17//6 63//6 15//6 70//6
f 45//6 75//6 71//6 40//6 69//6
f 68//6 74//6 24//6 66//6 19//6
f 62//6 65//6 72//6 73//6 115//6
f 73//6 72//6 45//6 61//6 16//6
f 71//6 75//6 74//6 68//6
f 99//6 90//6 77//6 84//6
f 75//22 72//22 77//22 90//22 82//22 86//22 79//22
f 24//6 74//6 65//6
f 75//6 45//6 72//6
f 74//23 75//23 79//23 87//23 83//23 91//23 78//23
f 65//24 74//24 78//24 85//24 81//24 89//24 76//24
f 72//5 65//5 76//5 88//5 80//5 84//5 77//5
f 98//6 92//6 80//6 88//6
f 93//25 96//25 105//25 100//25
f 96//6 86//6 82//6 95//6
f 95//26 99//26 108//26 102//26
f 83//6 87//6 96//6 93//6
f 87//6 79//6 86//6 96//6
f 85//6 97//6 94//6 81//6
f 78//6 91//6 97//6 85//6
f 91//6 83//6 93//6 97//6
f 89//6 98//6 88//6 76//6
f 81//6 94//6 98//6 89//6
f 94//27 97//27 106//27 104//27
f 92//6 99//6 84//6 80//6
f 99//28 92//28 103//28 108//28
f 95//6 82//6 90//6 99//6
f 106//6 100//6 101//6 104//6
f 100//6 105//6 102//6 101//6
f 104//6 101//6 103//6 107//6
f 101//6 102//6 108//6 103//6
f 92//28 98//28 107//28 103//28
f 96//29 95//29 102//29 105//29
f 98//30 94//30 104//30 107//30
f 97//31 93//31 100//31 106//31
f 62//5 111//5 110//5 5//5 30//5 21//5 26//5 14//5
f 116//5 120//5 114//5 111//5 62//5 115//5
f 111//5 114//5 112//5 109//5 151//5 150//5 110//5
f 113//5 116//5 115//5 73//5 112//5 114//5 120//5 118//5 119//5 117//5
f 125//5 126//5 123//5 122//5 121//5 124//5
f 113//32 117//32 121//32 122//32
f 118//33 120//33 126//33 125//33
f 116//34 113//34 122//34 123//34
f 120//35 116//35 123//35 126//35
f 117//36 119//36 124//36 121//36
f 119//37 118//37 125//37 124//37
f 274//3 247//3 129//3 246//3
f 145//38 259//38 141//38 131//38 142//38
f 144//38 256//38 139//38 130//38 143//38
f 141//38 255//38 144//38 143//38 131//38
f 273//39 254//39 144//39 255//39
f 272//39 267//39 139//39 256//39
f 136//38 258//38 145//38 142//38 127//38
f 271//39 257//39 145//39 258//39
f 270//39 253//39 141//39 259//39
f 269//3 260//3 138//3 252//3
f 127//38 142//38 146//38 261//38 132//38
f 142//38 131//38 140//38 262//38 146//38
f 268//3 263//3 134//3 249//3
f 131//38 143//38 147//38 264//38 140//38
f 143//38 130//38 135//38 265//38 147//38
f 140//3 264//3 268//3 247//3
f 264//3 147//3 263//3 268//3
f 39//15 53//15 57//15
f 35//40 18//40 27//40
f 139//5 149//5 152//5 153//5 148//5 135//5 130//5
f 8//5 7//5 266//5 135//5 148//5 109//5
f 139//5 267//5 6//5 5//5 110//5 149//5
f 110//6 150//6 156//6 159//6
f 148//38 153//38 157//38 161//38
f 152//38 149//38 158//38 155//38
f 159//5 156//5 155//5 158//5
f 109//41 148//41 161//41 160//41
f 151//6 109//6 160//6 154//6
f 159//42 158//42 149//42 110//42
f 150//17 152//17 155//17 156//17
f 153//8 151//8 154//8 157//8
f 150//5 151//5 153//5 152//5
f 161//5 157//5 154//5 160//5
f 162//1 179//1 168//1 47//1 42//1 51//1 15//1 63//1 17//1
f 25//1 169//1 180//1 162//1 17//1 64//1 12//1 29//1 20//1
f 203//43 178//43 177//43 190//43
f 13//1 167//1 184//1 171//1 165//1 10//1 225//1 209//1 220//1
f 239//6 216//6 163//6 229//6
f 165//1 171//1 183//1 169//1 25//1
f 238//6 226//6 207//6 218//6
f 237//6 227//6 210//6 228//6
f 202//1 185//1 173//1 187//1
f 201//1 188//1 174//1 186//1
f 200//44 195//44 176//44 189//44
f 199//45 194//45 174//45 188//45
f 198//44 196//44 172//44 191//44
f 197//7 192//7 175//7 187//7
f 193//7 197//7 187//7 173//7
f 162//46 180//46 197//46 193//46
f 180//46 169//46 192//46 197//46
f 178//44 198//44 191//44 177//44
f 171//38 184//38 198//38 178//38
f 184//38 167//38 196//38 198//38
f 195//47 199//47 188//47 176//47
f 170//48 181//48 199//48 195//48
f 181//49 168//49 194//49 199//49
f 196//44 200//44 189//44 172//44
f 167//38 182//38 200//38 196//38
f 182//38 170//38 195//38 200//38
f 185//1 201//1 186//1 173//1
f 172//50 189//50 201//50 185//50
f 189//50 176//50 188//50 201//50
f 190//1 202//1 187//1 175//1
f 177//50 191//50 202//50 190//50
f 191//50 172//50 185//50 202//50
f 192//51 203//51 190//51 175//51
f 169//52 183//52 203//52 192//52
f 183//53 171//53 178//53 203//53
f 194//7 204//7 186//7 174//7
f 168//46 179//46 204//46 194//46
f 179//46 162//46 193//46 204//46
f 11//1 166//1 170//1 182//1 167//1 13//1 224//1 208//1 219//1
f 236//4 230//4 206//4 215//4
f 235//6 231//6 211//6 232//6
f 234//6 217//6 164//6 233//6
f 231//6 234//6 233//6 211//6
f 207//6 223//6 234//6 231//6
f 223//6 9//6 217//6 234//6
f 224//6 235//6 232//6 208//6
f 13//6 218//6 235//6 224//6
f 218//6 207//6 231//6 235//6
f 219//4 236//4 215//4 11//4
f 208//6 232//6 236//6 219//6
f 232//6 211//6 230//6 236//6
f 225//6 237//6 228//6 209//6
f 10//54 214//54 237//54 225//54
f 214//54 205//54 227//54 237//54
f 220//6 238//6 218//6 13//6
f 209//6 228//6 238//6 220//6
f 228//6 210//6 226//6 238//6
f 227//6 239//6 229//6 210//6
f 205//54 222//54 239//54 227//54
f 222//54 1//54 216//54 239//54
f 226//6 240//6 223//6 207//6
f 210//6 229//6 240//6 226//6
f 229//6 163//6 213//6 240//6
f 230//4 241//4 221//4 206//4
f 211//6 233//6 241//6 230//6
f 233//6 164//6 212//6 241//6
f 27//55 277//55 283//55 10//55
f 242//3 269//3 252//3 3//3
f 132//3 261//3 269//3 242//3
f 261//3 146//3 260//3 269//3
f 257//39 270//39 259//39 145//39
f 137//39 245//39 270//39 257//39
f 245//39 128//39 253//39 270//39
f 250//39 271//39 258//39 136//39
f 2//39 251//39 271//39 250//39
f 251//39 137//39 257//39 271//39
f 254//39 272//39 256//39 144//39
f 133//39 243//39 272//39 254//39
f 243//39 6//39 267//39 272//39
f 253//39 273//39 255//39 141//39
f 128//39 248//39 273//39 253//39
f 248//39 133//39 254//39 273//39
f 260//3 274//3 246//3 138//3
f 146//3 262//3 274//3 260//3
f 262//3 140//3 247//3 274//3
f 263//3 275//3 244//3 134//3
f 147//3 265//3 275//3 263//3
f 265//3 135//3 266//3 275//3
f 1//1 281//1 279//1 280//1 2//1 250//1 242//1 3//1 290//1 288//1 289//1 4//1 212//1 164//1 217//1 9//1 213//1 163//1 216//1
f 133//56 278//56 276//56 277//56 27//56 18//56 23//56 5//56 6//56 243//56
f 48//57 11//57 291//57 287//57
f 280//56 284//56 248//56 128//56 245//56 137//56 251//56 2//56
f 281//56 283//56 282//56 279//56
f 279//56 282//56 284//56 280//56
f 282//56 283//56 277//56 276//56
f 10//58 283//58 281//58 1//58 222//58 205//58 214//58
f 284//56 282//56 276//56 278//56
f 248//56 284//56 278//56 133//56
f 287//2 291//2 293//2 285//2
f 285//2 293//2 292//2 286//2
f 286//2 292//2 249//2 134//2
f 292//2 293//2 288//2 290//2
f 249//2 292//2 290//2 3//2 252//2 138//2 246//2 129//2
f 291//59 11//59 215//59 206//59 221//59 4//59 289//59
f 293//2 291//2 289//2 288//2
