# Blender v2.79 (sub 0) OBJ File: 'shotgun.blend'
# www.blender.org
o Cube
v 1.000000 1.345378 -8.477210
v 1.000000 1.345378 0.816884
v -1.000000 1.345378 0.816884
v -1.000000 1.345378 -8.477210
v 0.956951 3.205122 -8.477209
v 0.956950 3.205123 0.816885
v -0.938850 3.038476 0.816884
v -0.938850 3.038476 -8.477210
v 0.999999 -1.000000 5.312255
v -1.000001 -1.000000 5.312255
v 0.999998 1.000000 5.312255
v -1.000002 1.000000 5.312254
v 0.999999 -1.000000 7.723829
v -1.000002 -1.000000 7.723829
v 0.999998 1.000000 7.723829
v -1.000002 1.000000 7.723828
v 1.000000 1.345378 -3.830163
v 0.000000 1.345378 -8.477210
v 1.000000 2.345378 -8.477209
v 0.000000 1.345378 0.816884
v 1.000000 2.345378 0.816884
v -1.000000 1.345378 -3.830163
v -1.000000 2.345378 0.816884
v -1.000000 2.345378 -8.477210
v 0.956950 3.205122 -3.830162
v 0.000000 3.806518 -8.477209
v -0.000001 3.345378 0.816884
v -0.938850 3.038476 -3.830163
v -0.000001 -1.000000 5.312255
v 0.999998 -0.000000 5.312255
v -1.000001 -0.000000 5.312255
v -0.000002 1.000000 5.312255
v 0.999999 0.172689 3.064569
v -1.000001 0.172689 3.064569
v -1.000001 2.172688 3.064569
v 0.999999 2.172688 3.064570
v -0.000002 -1.000000 7.723829
v 0.999998 -0.000000 7.723829
v -1.000002 -0.000000 7.723828
v -0.000002 1.000000 7.723829
v -1.000001 -1.000000 6.518042
v -1.000002 1.000000 6.518042
v 0.999999 -1.000000 6.518042
v 0.999998 1.000000 6.518043
v 0.999998 -0.000000 6.518042
v -0.000002 1.000000 6.518042
v -0.000001 -1.000000 6.518042
v -0.000002 -0.000000 7.723829
v 0.999999 1.172689 3.064570
v -1.000001 1.172689 3.064569
v -0.000001 2.172688 3.064570
v -1.000002 -0.000000 6.518042
v 0.000000 2.345378 -8.477209
v -1.000000 2.345378 -3.830163
v -0.000001 0.172689 3.064569
v 1.000000 2.345378 -3.830163
v -0.000000 3.345378 -3.830163
v 0.000000 1.345378 -3.830163
v 1.000000 1.345378 -1.506639
v -0.500000 1.345378 -8.477210
v 1.000000 2.845378 -8.477209
v -0.500000 1.345378 0.816884
v 1.000000 2.845378 0.816885
v -1.000000 1.345378 -6.153687
v -1.000000 2.845378 0.816884
v -1.000000 2.845378 -8.477210
v 0.956950 3.205123 -1.506639
v -0.561150 3.366108 -8.477209
v -0.561151 3.366108 0.816884
v -0.938850 3.038476 -6.153687
v -0.500001 -1.000000 5.312255
v 0.999998 0.500000 5.312255
v -1.000001 0.500000 5.312255
v -0.500002 1.000000 5.312255
v 0.999999 -0.413656 4.188412
v -1.000000 0.759033 1.940727
v -1.000001 1.586344 4.188412
v 0.999999 2.759033 1.940727
v -0.500002 -1.000000 7.723829
v 0.999998 0.500000 7.723829
v -1.000002 0.500000 7.723828
v -0.500002 1.000000 7.723828
v -1.000002 -1.000000 7.120935
v -1.000002 1.000000 5.915148
v 0.999999 -1.000000 7.120935
v 0.999998 1.000000 5.915149
v 1.000000 1.345378 -6.153687
v 0.500000 1.345378 -8.477210
v 1.000000 1.845378 -8.477209
v 0.500000 1.345378 0.816884
v 1.000000 1.845378 0.816884
v -1.000000 1.345378 -1.506639
v -1.000000 1.845378 0.816884
v -1.000000 1.845378 -8.477210
v 0.956951 3.205122 -6.153686
v 0.543050 3.485632 -8.477209
v 0.543049 3.485633 0.816885
v -0.938850 3.038476 -1.506640
v 0.499999 -1.000000 5.312255
v 0.999999 -0.500000 5.312255
v -1.000001 -0.500000 5.312255
v 0.499998 1.000000 5.312255
v 1.000000 0.759033 1.940727
v -1.000001 -0.413656 4.188412
v -1.000001 2.759033 1.940727
v 0.999998 1.586344 4.188413
v 0.499998 -1.000000 7.723829
v 0.999998 -0.500000 7.723829
v -1.000002 -0.500000 7.723828
v 0.499998 1.000000 7.723829
v -1.000001 -1.000000 5.915148
v -1.000002 1.000000 7.120935
v 0.999999 -1.000000 5.915148
v 0.999998 1.000000 7.120936
v 0.999998 -0.000000 7.120935
v 0.999998 -0.000000 5.915149
v 0.999999 -0.500000 6.518042
v 0.999998 0.500000 6.518043
v -0.000002 1.000000 7.120935
v -0.000002 1.000000 5.915148
v 0.499998 1.000000 6.518042
v -0.500002 1.000000 6.518042
v -0.000002 -1.000000 7.120935
v -0.000001 -1.000000 5.915148
v -0.500001 -1.000000 6.518042
v 0.499999 -1.000000 6.518042
v -0.500002 -0.000000 7.723828
v 0.499998 -0.000000 7.723829
v -0.000002 -0.500000 7.723829
v -0.000002 0.500000 7.723829
v 0.999999 0.586344 4.188412
v 0.999999 1.759033 1.940727
v 0.999999 0.672689 3.064569
v 0.999999 1.672688 3.064570
v -1.000001 0.586344 4.188412
v -1.000000 1.759033 1.940727
v -1.000001 1.672688 3.064569
v -1.000001 0.672689 3.064569
v -0.000001 1.586344 4.188412
v -0.000001 2.759033 1.940727
v 0.499999 2.172688 3.064570
v -0.500001 2.172688 3.064569
v -1.000002 -0.000000 7.120935
v -1.000002 -0.000000 5.915148
v -1.000002 0.500000 6.518042
v -1.000002 -0.500000 6.518042
v -0.500000 2.345378 -8.477209
v 0.500000 2.345378 -8.477209
v 0.000000 2.845378 -8.477209
v 0.000000 1.845378 -8.477209
v -1.000000 2.345378 -6.153687
v -1.000000 2.345378 -1.506640
v -1.000000 1.845378 -3.830163
v -1.000000 2.845378 -3.830163
v -0.000001 -0.413656 4.188412
v -0.000000 0.759033 1.940727
v -0.500001 0.172689 3.064569
v 0.499999 0.172689 3.064569
v 1.000000 2.345378 -1.506639
v 1.000000 2.345378 -6.153686
v 1.000000 1.845378 -3.830163
v 1.000000 2.845378 -3.830162
v -0.000000 3.345378 -1.506639
v 0.000000 3.345378 -6.153686
v 0.543050 3.485633 -3.830162
v -0.561150 3.366108 -3.830163
v -0.500000 1.345378 -3.830163
v 0.500000 1.345378 -3.830163
v 0.000000 1.345378 -6.153687
v 0.000000 1.345378 -1.506639
v 0.500000 1.345378 -1.506639
v 0.500000 1.345378 -6.153687
v -0.500000 1.345378 -6.153687
v -0.561150 3.366108 -6.153686
v 0.543050 3.485633 -6.153686
v 0.543049 3.485633 -1.506639
v 1.000000 2.845378 -6.153686
v 1.000000 1.845378 -6.153686
v 1.000000 1.845378 -1.506639
v 0.500000 0.759033 1.940727
v -0.500000 0.759033 1.940727
v -0.500001 -0.413656 4.188412
v -1.000000 2.845378 -1.506640
v -1.000000 1.845378 -1.506640
v -1.000000 1.845378 -6.153687
v 0.500000 1.845378 -8.477209
v 0.500000 2.845378 -8.477209
v -0.500000 2.845378 -8.477209
v -1.000001 -0.500000 5.915148
v -1.000002 0.500000 5.915148
v -1.000002 0.500000 7.120935
v -0.500001 2.759033 1.940727
v 0.499999 2.759033 1.940727
v 0.499999 1.586344 4.188413
v -1.000000 1.259033 1.940727
v -1.000001 2.259033 1.940727
v -1.000001 1.086344 4.188412
v 0.999999 2.259033 1.940727
v 1.000000 1.259033 1.940727
v 0.999999 0.086344 4.188412
v 0.499998 0.500000 7.723829
v 0.499998 -0.500000 7.723829
v -0.500002 -0.500000 7.723828
v 0.499999 -1.000000 5.915148
v -0.500001 -1.000000 5.915148
v -0.500002 -1.000000 7.120935
v -0.500002 1.000000 5.915148
v 0.499998 1.000000 5.915149
v 0.499998 1.000000 7.120935
v 0.999998 0.500000 5.915149
v 0.999999 -0.500000 5.915148
v 0.999998 -0.500000 7.120935
v 0.999998 0.500000 7.120936
v -0.500002 1.000000 7.120935
v 0.499999 -1.000000 7.120935
v -0.500002 0.500000 7.723828
v 0.999999 1.086344 4.188413
v -1.000001 0.086344 4.188412
v -0.500001 1.586344 4.188412
v -1.000002 -0.500000 7.120935
v -0.500000 1.845378 -8.477209
v -1.000000 2.845378 -6.153687
v 0.499999 -0.413656 4.188412
v 1.000000 2.845378 -1.506639
v -0.561150 3.366108 -1.506639
v -0.500000 1.345378 -1.506639
v -0.000001 3.345378 0.816884
v -0.500000 3.345378 0.816884
v -0.000001 2.759033 1.940727
v -0.500001 2.759033 1.940727
v -0.164494 3.593599 1.416759
v -0.335508 3.593599 1.416759
v -0.164494 3.393053 1.801145
v -0.335508 3.393053 1.801145
v 0.341747 3.590845 1.350993
v 0.158251 3.590845 1.350993
v 0.158251 3.375661 1.763434
v 0.341747 3.375661 1.763434
v -0.000000 0.053547 1.572652
v -0.000001 -0.532797 2.696495
v -0.500001 -0.532797 2.696495
v -0.500000 0.053547 1.572652
v -0.000000 0.058728 1.575355
v -0.000001 -0.527617 2.699198
v 0.499999 -0.527617 2.699198
v 0.500000 0.058728 1.575355
v -0.000000 0.053547 1.572652
v -0.000001 -0.532797 2.696495
v -0.500001 -0.532797 2.696495
v -0.500000 0.053547 1.572652
vn 0.0000 -1.0000 0.0000
vn -0.6553 0.7554 0.0000
vn 0.9929 0.1188 0.0000
vn 0.0000 -0.8866 -0.4626
vn -0.9533 0.3019 -0.0000
vn 0.0000 0.0000 -1.0000
vn -1.0000 -0.0000 -0.0000
vn -0.0000 0.8866 0.4626
vn 1.0000 0.0000 0.0000
vn 0.0000 0.0000 1.0000
vn 0.0000 1.0000 0.0000
vn 0.0000 -0.4626 0.8866
vn -0.2501 0.9682 0.0000
vn 0.0369 0.9993 -0.0000
vn -0.3488 0.9326 0.0925
vn 0.5610 0.8278 -0.0000
vn 0.1633 0.9818 0.0974
vn -0.3280 0.8788 0.3466
vn 0.2626 0.8555 0.4463
vn -0.9466 0.2858 0.1491
vn -0.9961 0.0879 0.0068
vn 0.9987 0.0500 0.0038
vn -0.9495 0.2783 0.1452
vn 0.2878 0.8491 0.4430
vn 0.0000 0.9240 -0.3823
vn -0.0000 0.2150 0.9766
vn 0.9495 0.2783 0.1452
vn 0.0000 0.2763 0.9611
vn -0.1800 0.9324 -0.3134
vn 0.9115 0.3388 0.2332
vn 0.0000 0.4626 -0.8866
s off
f 226//1 62//1 3//1 92//1
f 225//2 98//2 7//2 69//2
f 224//3 67//3 6//3 63//3
f 223//4 75//4 9//4 99//4
f 222//5 70//5 8//5 66//5
f 221//6 60//6 4//6 94//6
f 220//7 83//7 14//7 109//7
f 219//8 77//8 12//8 74//8
f 218//7 104//7 10//7 101//7
f 217//9 106//9 11//9 72//9
f 216//10 82//10 16//10 81//10
f 215//1 85//1 13//1 107//1
f 214//11 112//11 16//11 82//11
f 213//9 114//9 15//9 80//9
f 212//9 115//9 38//9 108//9
f 211//9 116//9 45//9 117//9
f 210//9 86//9 44//9 118//9
f 209//11 119//11 40//11 110//11
f 208//11 120//11 46//11 121//11
f 207//11 84//11 42//11 122//11
f 206//1 123//1 37//1 79//1
f 205//1 124//1 47//1 125//1
f 204//1 113//1 43//1 126//1
f 203//10 127//10 39//10 109//10
f 202//10 128//10 48//10 129//10
f 201//10 110//10 40//10 130//10
f 200//9 131//9 30//9 100//9
f 199//9 132//9 49//9 133//9
f 198//9 78//9 36//9 134//9
f 197//7 135//7 31//7 73//7
f 196//7 136//7 50//7 137//7
f 195//7 76//7 34//7 138//7
f 194//8 139//8 32//8 102//8
f 193//8 140//8 51//8 141//8
f 192//8 105//8 35//8 142//8
f 191//7 143//7 39//7 81//7
f 190//7 144//7 52//7 145//7
f 189//7 111//7 41//7 146//7
f 188//6 147//6 24//6 66//6
f 187//6 148//6 53//6 149//6
f 186//6 88//6 18//6 150//6
f 185//7 151//7 24//7 94//7
f 184//7 152//7 54//7 153//7
f 183//5 98//5 28//5 154//5
f 182//4 155//4 29//4 71//4
f 55//12 157//12 241//12 240//12
f 180//4 103//4 33//4 158//4
f 179//9 159//9 21//9 91//9
f 178//9 160//9 56//9 161//9
f 177//3 95//3 25//3 162//3
f 176//13 163//13 27//13 97//13
f 175//13 164//13 57//13 165//13
f 174//2 70//2 28//2 166//2
f 173//1 167//1 22//1 64//1
f 172//1 168//1 58//1 169//1
f 171//1 90//1 20//1 170//1
f 168//1 171//1 170//1 58//1
f 17//1 59//1 171//1 168//1
f 59//1 2//1 90//1 171//1
f 88//1 172//1 169//1 18//1
f 1//1 87//1 172//1 88//1
f 87//1 17//1 168//1 172//1
f 60//1 173//1 64//1 4//1
f 18//1 169//1 173//1 60//1
f 169//1 58//1 167//1 173//1
f 164//14 174//14 166//14 57//14
f 26//15 68//15 174//15 164//15
f 68//2 8//2 70//2 174//2
f 95//16 175//16 165//16 25//16
f 5//16 96//16 175//16 95//16
f 96//17 26//17 164//17 175//17
f 67//16 176//16 97//16 6//16
f 25//16 165//16 176//16 67//16
f 165//13 57//13 163//13 176//13
f 160//9 177//9 162//9 56//9
f 19//9 61//9 177//9 160//9
f 61//3 5//3 95//3 177//3
f 87//9 178//9 161//9 17//9
f 1//9 89//9 178//9 87//9
f 89//9 19//9 160//9 178//9
f 59//9 179//9 91//9 2//9
f 17//9 161//9 179//9 59//9
f 161//9 56//9 159//9 179//9
f 158//12 55//12 244//12 245//12
f 20//4 90//4 180//4 156//4
f 90//4 2//4 103//4 180//4
f 76//4 181//4 157//4 34//4
f 3//4 62//4 181//4 76//4
f 62//4 20//4 156//4 181//4
f 104//4 182//4 71//4 10//4
f 34//4 157//4 182//4 104//4
f 157//4 55//4 155//4 182//4
f 152//7 183//7 154//7 54//7
f 23//7 65//7 183//7 152//7
f 65//5 7//5 98//5 183//5
f 92//7 184//7 153//7 22//7
f 3//7 93//7 184//7 92//7
f 93//7 23//7 152//7 184//7
f 64//7 185//7 94//7 4//7
f 22//7 153//7 185//7 64//7
f 153//7 54//7 151//7 185//7
f 148//6 186//6 150//6 53//6
f 19//6 89//6 186//6 148//6
f 89//6 1//6 88//6 186//6
f 96//6 187//6 149//6 26//6
f 5//6 61//6 187//6 96//6
f 61//6 19//6 148//6 187//6
f 68//6 188//6 66//6 8//6
f 26//6 149//6 188//6 68//6
f 149//6 53//6 147//6 188//6
f 144//7 189//7 146//7 52//7
f 31//7 101//7 189//7 144//7
f 101//7 10//7 111//7 189//7
f 84//7 190//7 145//7 42//7
f 12//7 73//7 190//7 84//7
f 73//7 31//7 144//7 190//7
f 112//7 191//7 81//7 16//7
f 42//7 145//7 191//7 112//7
f 145//7 52//7 143//7 191//7
f 140//8 192//8 142//8 51//8
f 27//10 69//10 228//10 227//10
f 69//18 7//18 105//18 192//18
f 78//8 193//8 141//8 36//8
f 6//19 97//19 193//19 78//19
f 27//20 140//20 237//20 236//20
f 106//8 194//8 102//8 11//8
f 36//8 141//8 194//8 106//8
f 141//8 51//8 139//8 194//8
f 136//7 195//7 138//7 50//7
f 23//7 93//7 195//7 136//7
f 93//7 3//7 76//7 195//7
f 105//7 196//7 137//7 35//7
f 7//21 65//21 196//21 105//21
f 65//7 23//7 136//7 196//7
f 77//7 197//7 73//7 12//7
f 35//7 137//7 197//7 77//7
f 137//7 50//7 135//7 197//7
f 132//9 198//9 134//9 49//9
f 21//9 63//9 198//9 132//9
f 63//22 6//22 78//22 198//22
f 103//9 199//9 133//9 33//9
f 2//9 91//9 199//9 103//9
f 91//9 21//9 132//9 199//9
f 75//9 200//9 100//9 9//9
f 33//9 133//9 200//9 75//9
f 133//9 49//9 131//9 200//9
f 128//10 201//10 130//10 48//10
f 38//10 80//10 201//10 128//10
f 80//10 15//10 110//10 201//10
f 107//10 202//10 129//10 37//10
f 13//10 108//10 202//10 107//10
f 108//10 38//10 128//10 202//10
f 79//10 203//10 109//10 14//10
f 37//10 129//10 203//10 79//10
f 129//10 48//10 127//10 203//10
f 124//1 204//1 126//1 47//1
f 29//1 99//1 204//1 124//1
f 99//1 9//1 113//1 204//1
f 111//1 205//1 125//1 41//1
f 10//1 71//1 205//1 111//1
f 71//1 29//1 124//1 205//1
f 83//1 206//1 79//1 14//1
f 41//1 125//1 206//1 83//1
f 125//1 47//1 123//1 206//1
f 120//11 207//11 122//11 46//11
f 32//11 74//11 207//11 120//11
f 74//11 12//11 84//11 207//11
f 86//11 208//11 121//11 44//11
f 11//11 102//11 208//11 86//11
f 102//11 32//11 120//11 208//11
f 114//11 209//11 110//11 15//11
f 44//11 121//11 209//11 114//11
f 121//11 46//11 119//11 209//11
f 116//9 210//9 118//9 45//9
f 30//9 72//9 210//9 116//9
f 72//9 11//9 86//9 210//9
f 113//9 211//9 117//9 43//9
f 9//9 100//9 211//9 113//9
f 100//9 30//9 116//9 211//9
f 85//9 212//9 108//9 13//9
f 43//9 117//9 212//9 85//9
f 117//9 45//9 115//9 212//9
f 115//9 213//9 80//9 38//9
f 45//9 118//9 213//9 115//9
f 118//9 44//9 114//9 213//9
f 119//11 214//11 82//11 40//11
f 46//11 122//11 214//11 119//11
f 122//11 42//11 112//11 214//11
f 123//1 215//1 107//1 37//1
f 47//1 126//1 215//1 123//1
f 126//1 43//1 85//1 215//1
f 127//10 216//10 81//10 39//10
f 48//10 130//10 216//10 127//10
f 130//10 40//10 82//10 216//10
f 131//9 217//9 72//9 30//9
f 49//9 134//9 217//9 131//9
f 134//9 36//9 106//9 217//9
f 135//7 218//7 101//7 31//7
f 50//7 138//7 218//7 135//7
f 138//7 34//7 104//7 218//7
f 139//8 219//8 74//8 32//8
f 51//8 142//8 219//8 139//8
f 142//8 35//8 77//8 219//8
f 143//7 220//7 109//7 39//7
f 52//7 146//7 220//7 143//7
f 146//7 41//7 83//7 220//7
f 147//6 221//6 94//6 24//6
f 53//6 150//6 221//6 147//6
f 150//6 18//6 60//6 221//6
f 151//7 222//7 66//7 24//7
f 54//7 154//7 222//7 151//7
f 154//5 28//5 70//5 222//5
f 155//4 223//4 99//4 29//4
f 55//4 158//4 223//4 155//4
f 158//4 33//4 75//4 223//4
f 159//9 224//9 63//9 21//9
f 56//9 162//9 224//9 159//9
f 162//3 25//3 67//3 224//3
f 163//14 225//14 69//14 27//14
f 57//14 166//14 225//14 163//14
f 166//2 28//2 98//2 225//2
f 167//1 226//1 92//1 22//1
f 58//1 170//1 226//1 167//1
f 170//1 20//1 62//1 226//1
f 228//23 230//23 234//23 232//23
f 69//24 192//24 230//24 228//24
f 140//10 27//10 227//10 229//10
f 192//10 140//10 229//10 230//10
f 231//8 232//8 234//8 233//8
f 227//25 228//25 232//25 231//25
f 230//26 229//26 233//26 234//26
f 229//27 227//27 231//27 233//27
f 235//8 236//8 237//8 238//8
f 140//28 193//28 238//28 237//28
f 97//29 27//29 236//29 235//29
f 193//30 97//30 235//30 238//30
f 241//10 242//10 250//10 249//10
f 157//7 181//7 242//7 241//7
f 156//9 55//9 240//9 239//9
f 181//31 156//31 239//31 242//31
f 243//4 246//4 245//4 244//4
f 55//7 156//7 243//7 244//7
f 156//31 180//31 246//31 243//31
f 180//9 158//9 245//9 246//9
f 250//4 247//4 248//4 249//4
f 239//10 240//10 248//10 247//10
f 242//10 239//10 247//10 250//10
f 240//10 241//10 249//10 248//10
