# Blender v2.79 (sub 0) OBJ File: ''
# www.blender.org
o sphere
v -0.109116 -0.150186 -0.000000
v -0.176554 -0.057366 -0.000000
v -0.088277 -0.057366 -0.152900
v -0.054558 -0.150186 -0.094498
v -0.176554 0.057366 0.000000
v -0.088277 0.057366 -0.152900
v -0.109116 0.150186 0.000000
v -0.054558 0.150186 -0.094498
v 0.088277 -0.057366 -0.152900
v 0.054558 -0.150186 -0.094498
v 0.088277 0.057366 -0.152900
v 0.054558 0.150186 -0.094498
v 0.176554 -0.057366 -0.000000
v 0.109116 -0.150186 -0.000000
v 0.176554 0.057366 0.000000
v 0.109116 0.150186 0.000000
v 0.088277 -0.057366 0.152900
v 0.054558 -0.150186 0.094498
v 0.088277 0.057366 0.152900
v 0.054558 0.150186 0.094498
v -0.088277 -0.057366 0.152900
v -0.054558 -0.150186 0.094498
v -0.088277 0.057366 0.152900
v -0.054558 0.150186 0.094498
v 0.000000 -0.185640 -0.000000
v 0.000000 0.185640 0.000000
vn -0.6466 -0.7628 -0.0000
vn -0.9590 -0.2834 -0.0000
vn -0.4795 -0.2834 -0.8305
vn -0.3233 -0.7628 -0.5600
vn -0.9590 0.2834 -0.0000
vn -0.4795 0.2834 -0.8305
vn -0.6466 0.7628 -0.0000
vn -0.3233 0.7628 -0.5600
vn 0.4795 -0.2834 -0.8305
vn 0.3233 -0.7628 -0.5600
vn 0.4795 0.2834 -0.8305
vn 0.3233 0.7628 -0.5600
vn 0.9590 -0.2834 -0.0000
vn 0.6466 -0.7628 -0.0000
vn 0.9590 0.2834 0.0000
vn 0.6466 0.7628 0.0000
vn 0.4795 -0.2834 0.8305
vn 0.3233 -0.7628 0.5600
vn 0.4795 0.2834 0.8305
vn 0.3233 0.7628 0.5600
vn -0.4795 -0.2834 0.8305
vn -0.3233 -0.7628 0.5600
vn -0.4795 0.2834 0.8305
vn -0.3233 0.7628 0.5600
vn 0.0000 -1.0000 -0.0000
vn 0.0000 1.0000 0.0000
s 1
f 1//1 2//2 3//3 4//4
f 2//2 5//5 6//6 3//3
f 5//5 7//7 8//8 6//6
f 4//4 3//3 9//9 10//10
f 3//3 6//6 11//11 9//9
f 6//6 8//8 12//12 11//11
f 10//10 9//9 13//13 14//14
f 9//9 11//11 15//15 13//13
f 11//11 12//12 16//16 15//15
f 14//14 13//13 17//17 18//18
f 13//13 15//15 19//19 17//17
f 15//15 16//16 20//20 19//19
f 18//18 17//17 21//21 22//22
f 17//17 19//19 23//23 21//21
f 19//19 20//20 24//24 23//23
f 25//25 1//1 4//4
f 7//7 26//26 8//8
f 25//25 4//4 10//10
f 8//8 26//26 12//12
f 25//25 10//10 14//14
f 12//12 26//26 16//16
f 25//25 14//14 18//18
f 16//16 26//26 20//20
f 25//25 18//18 22//22
f 20//20 26//26 24//24
f 25//25 22//22 1//1
f 22//22 21//21 2//2 1//1
f 21//21 23//23 5//5 2//2
f 23//23 24//24 7//7 5//5
f 24//24 26//26 7//7
